<svg width="14" height="13" viewBox="0 0 14 13" fill="none" xmlns="http://www.w3.org/2000/svg">
<path d="M8.98175 8.98163C10.68 7.28341 10.68 4.53006 8.98175 2.83185C7.28354 1.13363 4.53019 1.13363 2.83197 2.83185C1.13376 4.53006 1.13376 7.28341 2.83197 8.98163C4.53019 10.6798 7.28354 10.6798 8.98175 8.98163ZM9.47454 10.212C7.27804 12.0365 4.0125 11.9192 1.95343 9.86017C-0.229989 7.67675 -0.229989 4.13673 1.95343 1.95331C4.13685 -0.230111 7.67687 -0.230111 9.86029 1.95331C11.8531 3.94613 12.0271 7.06905 10.3822 9.25917L12.8849 11.7619C13.141 12.018 13.1422 12.4321 12.8835 12.6907C12.6266 12.9476 12.2077 12.9451 11.9547 12.6921L9.47454 10.212Z" fill="white"/>
</svg>
